# xmcd CD database file
#
# Track frame offsets:
#	150
#	13135
#	34674
#	54558
#	70074
#	87105
#	114334
#	135257
#	152918
#	166423
#	177979
#	201755
#	224052
#
# Disc length: 3190 seconds
#
# Revision: 0
# Processed by: cddbd v1.5.2PL0 Copyright (c) Steve Scherf et al.
# Submitted via: CDex 1.79
#
DISCID=b00c740d
DTITLE=Various Blues - Why I Sing The Blues
DYEAR=1900
DGENRE=Blues
TTITLE0=Too Much Money Blues_The Bill Johnson Band
TTITLE1=Home Loan Blues_The Bill Johnson Band
TTITLE2=Virginia Wolf Sings The Blues_The Bill Johnson Band
TTITLE3=Broke Fiddle Blues_The Bill Johnson Band
TTITLE4=Dead Pale Penis Person Blues_The Bill Johnson Band
TTITLE5=St Mary Blues_The Bill Johnson Band
TTITLE6=Tattoos And Cigarettes_The Bill Johnson Band
TTITLE7=Rainy Lady_The Bill Johnson Band
TTITLE8=Bush Blues_Ken Hamm
TTITLE9=North Wind Blues_Ken Hamm
TTITLE10=Dashboard Mary_The Jell Roll Blues Band
TTITLE11=Tobaco Belt_Six Hands
TTITLE12=Doctor Doom Catholic Blues_Jon Wood
EXTD=
EXTT0=
EXTT1=
EXTT2=
EXTT3=
EXTT4=
EXTT5=
EXTT6=
EXTT7=
EXTT8=
EXTT9=
EXTT10=
EXTT11=
EXTT12=
PLAYORDER=
